<svg width="19" height="20" viewBox="0 0 19 20" fill="none" xmlns="http://www.w3.org/2000/svg">
<path d="M2.82547 19.9805C2.49237 19.9799 2.16517 19.8925 1.87606 19.7271C1.22503 19.3582 0.820312 18.6421 0.820312 17.8646V2.13155C0.820312 1.35195 1.22503 0.637991 1.87606 0.269078C2.17206 0.098963 2.50832 0.0114812 2.84969 0.0157758C3.19107 0.0200705 3.52502 0.115984 3.81665 0.293491L17.263 8.34232C17.5433 8.51804 17.7743 8.76205 17.9344 9.05147C18.0945 9.34089 18.1785 9.66624 18.1785 9.99701C18.1785 10.3278 18.0945 10.6531 17.9344 10.9425C17.7743 11.232 17.5433 11.476 17.263 11.6517L3.81448 19.7027C3.51604 19.8831 3.17421 19.9791 2.82547 19.9805Z" fill="white"/>
</svg>
