<svg width="21" height="24" viewBox="0 0 21 24" fill="none" xmlns="http://www.w3.org/2000/svg">
<path d="M15.6257 6.14258V5.4104C15.6257 4.0511 15.0858 2.74748 14.1246 1.78631C13.1634 0.825136 11.8598 0.285156 10.5005 0.285156C9.14119 0.285156 7.83756 0.825136 6.87639 1.78631C5.91522 2.74748 5.37524 4.0511 5.37524 5.4104V6.14258H0.25V20.7861C0.25 21.5629 0.55856 22.3078 1.1078 22.857C1.65704 23.4063 2.40197 23.7148 3.17871 23.7148H17.8223C18.599 23.7148 19.3439 23.4063 19.8932 22.857C20.4424 22.3078 20.751 21.5629 20.751 20.7861V6.14258H15.6257ZM10.5005 1.74951C11.4714 1.74951 12.4026 2.13521 13.0891 2.82176C13.7757 3.50831 14.1614 4.43947 14.1614 5.4104V6.14258H6.8396V5.4104C6.8396 4.43947 7.2253 3.50831 7.91185 2.82176C8.5984 2.13521 9.52956 1.74951 10.5005 1.74951ZM10.5005 11.9897C12.9372 9.48424 19.0304 13.8685 10.5005 19.5048C1.97062 13.8671 8.0638 9.48424 10.5005 11.9897Z" fill="#166209"/>
</svg>
