<svg width="80" height="80" viewBox="0 0 80 80" fill="none" xmlns="http://www.w3.org/2000/svg">
<mask id="path-1-inside-1_4012_17846" fill="white">
<path d="M25 46C25 43.7909 26.7909 42 29 42H51C53.2091 42 55 43.7909 55 46V74C55 76.2091 53.2091 78 51 78H29C26.7909 78 25 76.2091 25 74V46Z"/>
</mask>
<path d="M25 46C25 43.7909 26.7909 42 29 42H51C53.2091 42 55 43.7909 55 46V74C55 76.2091 53.2091 78 51 78H29C26.7909 78 25 76.2091 25 74V46Z" fill="#FEF8F1"/>
<path d="M21 46C21 41.5817 24.5817 38 29 38H51C55.4183 38 59 41.5817 59 46H51H29H21ZM59 74C59 76.7614 56.7614 79 54 79H26C23.2386 79 21 76.7614 21 74H29C29 75.6569 29 77 29 77H51C51 77 51 75.6569 51 74H59ZM26 79C23.2386 79 21 76.7614 21 74V46C21 41.5817 24.5817 38 29 38V46V74C29 75.6569 29 77 29 77L26 79ZM51 38C55.4183 38 59 41.5817 59 46V74C59 76.7614 56.7614 79 54 79L51 77C51 77 51 75.6569 51 74V46V38Z" fill="black" mask="url(#path-1-inside-1_4012_17846)"/>
<circle cx="40" cy="40" r="38" stroke="black" stroke-width="4"/>
<circle cx="23.1367" cy="26.6211" r="5" fill="#FEF8F1" stroke="black" stroke-width="4"/>
</svg>
