<svg width="17" height="29" viewBox="0 0 17 29" fill="none" xmlns="http://www.w3.org/2000/svg">
<path d="M0.000478745 25.4056C-0.00166702 25.0343 0.0694942 24.6663 0.209881 24.3226C0.350267 23.9788 0.557119 23.6662 0.818575 23.4026L10.1562 14.1215L1.18531 4.8121C0.659891 4.28354 0.364977 3.56855 0.364977 2.82327C0.364977 2.078 0.659891 1.36301 1.18531 0.834454C1.44756 0.570044 1.75957 0.360176 2.10333 0.216957C2.4471 0.0737372 2.81583 0 3.18824 0C3.56064 0 3.92937 0.0737372 4.27314 0.216957C4.6169 0.360176 4.92891 0.570044 5.19116 0.834454L16.0803 12.1185C16.5972 12.6459 16.8867 13.3549 16.8867 14.0933C16.8867 14.8317 16.5972 15.5406 16.0803 16.068L4.79622 27.3521C4.53397 27.6165 4.22196 27.8263 3.87819 27.9696C3.53442 28.1128 3.1657 28.1865 2.79329 28.1865C2.42088 28.1865 2.05216 28.1128 1.70839 27.9696C1.36462 27.8263 1.05261 27.6165 0.790363 27.3521C0.286301 26.8291 0.00337029 26.1319 0.000478745 25.4056Z" fill="black"/>
</svg>
