<svg width="28" height="23" viewBox="0 0 28 23" fill="none" xmlns="http://www.w3.org/2000/svg">
<path d="M2.6575 15.7864C1.5525 14.3512 1 13.6323 1 11.5016C1 9.36956 1.5525 8.65326 2.6575 7.21676C4.8636 4.35156 8.5634 1.10156 14 1.10156C19.4366 1.10156 23.1364 4.35156 25.3425 7.21676C26.4475 8.65456 27 9.37086 27 11.5016C27 13.6336 26.4475 14.3499 25.3425 15.7864C23.1364 18.6516 19.4366 21.9016 14 21.9016C8.5634 21.9016 4.8636 18.6516 2.6575 15.7864Z" stroke="#A2A2A2" stroke-width="1.95"/>
<path d="M17.9016 11.5016C17.9016 12.5359 17.4907 13.5279 16.7593 14.2593C16.0279 14.9907 15.0359 15.4016 14.0016 15.4016C12.9672 15.4016 11.9752 14.9907 11.2438 14.2593C10.5125 13.5279 10.1016 12.5359 10.1016 11.5016C10.1016 10.4672 10.5125 9.47524 11.2438 8.74385C11.9752 8.01245 12.9672 7.60156 14.0016 7.60156C15.0359 7.60156 16.0279 8.01245 16.7593 8.74385C17.4907 9.47524 17.9016 10.4672 17.9016 11.5016Z" stroke="#A2A2A2" stroke-width="1.95"/>
</svg>
