<svg width="24" height="24" viewBox="0 0 24 24" fill="none" xmlns="http://www.w3.org/2000/svg">
<path d="M4.125 21C3.42881 21 2.76113 20.7234 2.26884 20.2312C1.77656 19.7389 1.5 19.0712 1.5 18.375V14.625C1.5 14.3266 1.61853 14.0405 1.8295 13.8295C2.04048 13.6185 2.32663 13.5 2.625 13.5C2.92337 13.5 3.20952 13.6185 3.4205 13.8295C3.63147 14.0405 3.75 14.3266 3.75 14.625V18.375C3.75 18.582 3.918 18.75 4.125 18.75H19.875C19.9745 18.75 20.0698 18.7105 20.1402 18.6402C20.2105 18.5698 20.25 18.4745 20.25 18.375V14.625C20.25 14.3266 20.3685 14.0405 20.5795 13.8295C20.7905 13.6185 21.0766 13.5 21.375 13.5C21.6734 13.5 21.9595 13.6185 22.1705 13.8295C22.3815 14.0405 22.5 14.3266 22.5 14.625V18.375C22.5 19.0712 22.2234 19.7389 21.7312 20.2312C21.2389 20.7234 20.5712 21 19.875 21H4.125Z" fill="white"/>
<path d="M10.8743 11.5335V3C10.8743 2.70163 10.9928 2.41548 11.2038 2.2045C11.4148 1.99353 11.7009 1.875 11.9993 1.875C12.2977 1.875 12.5838 1.99353 12.7948 2.2045C13.0058 2.41548 13.1243 2.70163 13.1243 3V11.5335L16.0793 8.58C16.1837 8.4756 16.3076 8.39278 16.444 8.33628C16.5805 8.27978 16.7267 8.2507 16.8743 8.2507C17.0219 8.2507 17.1681 8.27978 17.3046 8.33628C17.441 8.39278 17.5649 8.4756 17.6693 8.58C17.7737 8.6844 17.8565 8.80834 17.913 8.94475C17.9695 9.08116 17.9986 9.22735 17.9986 9.375C17.9986 9.52264 17.9695 9.66884 17.913 9.80525C17.8565 9.94166 17.7737 10.0656 17.6693 10.17L12.7943 15.045C12.5834 15.2557 12.2974 15.374 11.9993 15.374C11.7012 15.374 11.4152 15.2557 11.2043 15.045L6.3293 10.17C6.2249 10.0656 6.14208 9.94166 6.08558 9.80525C6.02908 9.66884 6 9.52264 6 9.375C6 9.22735 6.02908 9.08116 6.08558 8.94475C6.14208 8.80834 6.2249 8.6844 6.3293 8.58C6.4337 8.4756 6.55764 8.39278 6.69405 8.33628C6.83046 8.27978 6.97665 8.2507 7.1243 8.2507C7.27194 8.2507 7.41814 8.27978 7.55455 8.33628C7.69096 8.39278 7.8149 8.4756 7.9193 8.58L10.8743 11.5335Z" fill="white"/>
</svg>
