<svg width="59" height="59" viewBox="0 0 59 59" fill="none" xmlns="http://www.w3.org/2000/svg">
<path d="M53.0789 29.5007V29.5C53.0789 24.8365 51.696 20.2778 49.1051 16.4003C46.5142 12.5228 42.8317 9.50061 38.5232 7.71598C34.2148 5.93135 29.4739 5.46441 24.9 6.37421C20.3262 7.284 16.1248 9.52967 12.8272 12.8272C9.52968 16.1248 7.28402 20.3261 6.37422 24.9C5.46443 29.4738 5.93137 34.2148 7.71599 38.5232C9.50062 42.8317 12.5228 46.5142 16.4003 49.1051C20.2778 51.696 24.8365 53.0788 29.5 53.0788L29.5007 53.0788C35.752 53.0722 41.7453 50.5859 46.1656 46.1656C50.5859 41.7453 53.0722 35.7519 53.0789 29.5007ZM26.8566 32.7793V32.7778V30.5926C26.8566 29.8915 27.1351 29.2192 27.6309 28.7234C28.1266 28.2277 28.7989 27.9492 29.5 27.9492C32.715 27.9492 35.5974 25.8292 35.5974 22.9444C35.5974 20.0597 32.715 17.9397 29.5 17.9397C26.285 17.9397 23.4026 20.0597 23.4026 22.9444V24.037C23.4026 24.7381 23.1241 25.4104 22.6284 25.9062C22.1327 26.4019 21.4603 26.6804 20.7593 26.6804C20.0582 26.6804 19.3859 26.4019 18.8901 25.9062C18.3944 25.4104 18.1159 24.7381 18.1159 24.037V22.9444C18.1159 17.3248 23.1655 12.6529 29.5 12.6529C35.8345 12.6529 40.8841 17.3248 40.8841 22.9444C40.8841 27.6272 37.3876 31.6431 32.5491 32.8618L32.167 32.9581L32.0839 33.3432C31.9461 33.9816 31.577 34.5464 31.0475 34.9287C30.518 35.3111 29.8658 35.4838 29.2165 35.4138C28.5672 35.3438 27.9668 35.0358 27.531 34.5494C27.0953 34.0629 26.8551 33.4324 26.8566 32.7793ZM33.236 43.7037C33.236 44.4426 33.0169 45.1649 32.6063 45.7793C32.1958 46.3937 31.6124 46.8725 30.9297 47.1553C30.247 47.438 29.4959 47.512 28.7712 47.3679C28.0465 47.2237 27.3808 46.8679 26.8583 46.3454C26.3358 45.8229 25.98 45.1572 25.8358 44.4325C25.6917 43.7078 25.7657 42.9567 26.0484 42.274C26.3312 41.5913 26.81 41.0079 27.4244 40.5974C28.0388 40.1868 28.7611 39.9677 29.5 39.9677C30.4908 39.9677 31.4411 40.3613 32.1417 41.062C32.8424 41.7626 33.236 42.7129 33.236 43.7037ZM58.3656 29.5007C58.3655 35.2095 56.6725 40.7901 53.5009 45.5369C50.3291 50.2838 45.8209 53.9835 40.5464 56.1683C35.2719 58.3531 29.468 58.9247 23.8686 57.8109C18.2692 56.6971 13.1259 53.948 9.08896 49.911C5.05203 45.8741 2.30285 40.7308 1.18907 35.1314C0.075281 29.532 0.646916 23.7281 2.83168 18.4536C5.01645 13.1791 8.71623 8.67093 13.4631 5.49914C18.21 2.32741 23.7907 0.634473 29.4997 0.634409C37.1528 0.642997 44.4899 3.68697 49.9015 9.09853C55.3131 14.5102 58.3571 21.8475 58.3656 29.5007Z" fill="#222120" stroke="#FEF8F1" stroke-width="1.26882"/>
</svg>
