<svg width="25" height="23" viewBox="0 0 25 23" fill="none" xmlns="http://www.w3.org/2000/svg">
<path d="M1.3636 6.3636V5C0.610894 5 0 5.61089 0 6.3636H1.3636ZM13.3633 6.3636H14.7269C14.7269 5.61089 14.116 5 13.3633 5V6.3636ZM13.3633 8.54537V7.18176C13.0017 7.18176 12.6548 7.32543 12.3991 7.58115C12.1434 7.83688 11.9997 8.18372 11.9997 8.54537H13.3633ZM1.3636 7.7272H13.3633V5H1.3636V7.7272ZM11.9997 6.3636V19.4542H14.7269V6.3636H11.9997ZM2.7272 17.2724V6.3636H0V17.2724H2.7272ZM13.3633 9.90897H18.8177V7.18176H13.3633V9.90897ZM21.8176 12.9089V17.2724H24.5448V12.9089H21.8176ZM14.7269 19.4542V8.54537H11.9997V19.4542H14.7269ZM19.3959 20.0324C19.2425 20.1856 19.0345 20.2716 18.8177 20.2716C18.6009 20.2716 18.3929 20.1856 18.2395 20.0324L16.3109 21.961C16.9757 22.6258 17.8775 22.9993 18.8177 22.9993C19.7579 22.9993 20.6597 22.6258 21.3246 21.961L19.3959 20.0324ZM18.2395 18.876C18.3929 18.7228 18.6009 18.6367 18.8177 18.6367C19.0345 18.6367 19.2425 18.7228 19.3959 18.876L21.3246 16.9473C20.6597 16.2825 19.7579 15.909 18.8177 15.909C17.8775 15.909 16.9757 16.2825 16.3109 16.9473L18.2395 18.876ZM6.3053 20.0324C6.15189 20.1856 5.94394 20.2716 5.72713 20.2716C5.51032 20.2716 5.30237 20.1856 5.14896 20.0324L3.22028 21.961C3.88516 22.6258 4.78689 22.9993 5.72713 22.9993C6.66737 22.9993 7.5691 22.6258 8.23398 21.961L6.3053 20.0324ZM5.14896 18.876C5.30237 18.7228 5.51032 18.6367 5.72713 18.6367C5.94394 18.6367 6.15189 18.7228 6.3053 18.876L8.23398 16.9473C7.5691 16.2825 6.66737 15.909 5.72713 15.909C4.78689 15.909 3.88516 16.2825 3.22028 16.9473L5.14896 18.876ZM19.3959 18.876C19.4724 18.9516 19.533 19.0416 19.5742 19.1409C19.6154 19.2402 19.6364 19.3467 19.6359 19.4542H22.3631C22.3636 18.9885 22.2722 18.5273 22.094 18.0971C21.9157 17.6669 21.6543 17.2762 21.3246 16.9473L19.3959 18.876ZM19.6359 19.4542C19.6361 19.5616 19.6151 19.6681 19.5739 19.7673C19.5327 19.8666 19.4722 19.9567 19.3959 20.0324L21.3246 21.961C21.6541 21.632 21.9154 21.2413 22.0936 20.8111C22.2718 20.3809 22.3634 19.9198 22.3631 19.4542H19.6359ZM16.6359 18.0906H13.3633V20.8178H16.6359V18.0906ZM18.2395 20.0324C18.1633 19.9567 18.1028 19.8666 18.0616 19.7673C18.0204 19.6681 17.9993 19.5616 17.9995 19.4542H15.2723C15.2723 20.3596 15.6192 21.2694 16.3109 21.961L18.2395 20.0324ZM17.9995 19.4542C17.999 19.3467 18.02 19.2402 18.0612 19.1409C18.1024 19.0416 18.1631 18.9516 18.2395 18.876L16.3109 16.9473C15.9813 17.2763 15.72 17.6671 15.5418 18.0973C15.3636 18.5274 15.272 18.9886 15.2723 19.4542H17.9995ZM5.14896 20.0324C5.07267 19.9567 5.01218 19.8666 4.97098 19.7673C4.92978 19.6681 4.9087 19.5616 4.90897 19.4542H2.18176C2.18176 20.3596 2.52866 21.2694 3.22028 21.961L5.14896 20.0324ZM4.90897 19.4542C4.90846 19.3467 4.92943 19.2402 4.97064 19.1409C5.01185 19.0416 5.07248 18.9516 5.14896 18.876L3.22028 16.9473C2.89077 17.2763 2.62942 17.6671 2.45121 18.0973C2.273 18.5274 2.18143 18.9886 2.18176 19.4542H4.90897ZM13.3633 18.0906H7.90889V20.8178H13.3633V18.0906ZM6.3053 18.876C6.38178 18.9516 6.44241 19.0416 6.48362 19.1409C6.52483 19.2402 6.5458 19.3467 6.54529 19.4542H9.27249C9.27249 18.5488 8.92559 17.639 8.23398 16.9473L6.3053 18.876ZM6.54529 19.4542C6.54555 19.5616 6.52448 19.6681 6.48328 19.7673C6.44208 19.8666 6.38158 19.9567 6.3053 20.0324L8.23398 21.961C8.56349 21.632 8.82484 21.2413 9.00305 20.8111C9.18126 20.3809 9.27282 19.9198 9.27249 19.4542H6.54529ZM21.8176 17.2724C21.8176 17.4894 21.7314 17.6975 21.578 17.8509C21.4246 18.0044 21.2165 18.0906 20.9995 18.0906V20.8178C21.9398 20.8178 22.8415 20.4443 23.5064 19.7794C24.1713 19.1145 24.5448 18.2127 24.5448 17.2724H21.8176ZM18.8177 9.90897C19.6133 9.90897 20.3764 10.225 20.939 10.7876C21.5016 11.3502 21.8176 12.1133 21.8176 12.9089H24.5448C24.5448 9.74534 21.9813 7.18176 18.8177 7.18176V9.90897ZM0 17.2724C0 18.2127 0.373529 19.1145 1.03841 19.7794C1.7033 20.4443 2.60508 20.8178 3.54537 20.8178V18.0906C3.32838 18.0906 3.12027 18.0044 2.96684 17.8509C2.8134 17.6975 2.7272 17.4894 2.7272 17.2724H0Z" fill="#222120"/>
<path d="M7.35962 5.27265C7.35962 4.40469 7.01482 3.57228 6.40108 2.95854C5.78734 2.3448 4.95493 2 4.08698 2C3.79766 2 3.52019 2.11493 3.31561 2.31951C3.11103 2.52409 2.99609 2.80156 2.99609 3.09088C2.99609 3.95884 3.34089 4.79125 3.95463 5.40499C4.56837 6.01873 5.40078 6.36353 6.26874 6.36353H7.35962M7.35962 5.27265V6.36353M7.35962 5.27265C7.35962 4.40469 7.70442 3.57228 8.31816 2.95854C8.9319 2.3448 9.76431 2 10.6323 2C10.9216 2 11.1991 2.11493 11.4036 2.31951C11.6082 2.52409 11.7231 2.80156 11.7231 3.09088C11.7231 3.95884 11.3784 4.79125 10.7646 5.40499C10.1509 6.01873 9.31846 6.36353 8.4505 6.36353H7.35962" stroke="#222120" stroke-width="2.36358" stroke-linejoin="round"/>
</svg>
