<svg width="18" height="20" viewBox="0 0 18 20" fill="none" xmlns="http://www.w3.org/2000/svg">
<path d="M2.00515 19.9805C1.67206 19.9799 1.34486 19.8925 1.05574 19.7271C0.40472 19.3582 0 18.6421 0 17.8646V2.13155C0 1.35195 0.40472 0.637991 1.05574 0.269078C1.35175 0.098963 1.68801 0.0114812 2.02938 0.0157758C2.37076 0.0200705 2.70471 0.115984 2.99634 0.293491L16.4427 8.34232C16.7229 8.51804 16.954 8.76205 17.1141 9.05147C17.2742 9.34089 17.3582 9.66624 17.3582 9.99701C17.3582 10.3278 17.2742 10.6531 17.1141 10.9425C16.954 11.232 16.7229 11.476 16.4427 11.6517L2.99417 19.7027C2.69573 19.8831 2.35389 19.9791 2.00515 19.9805Z" fill="#222120"/>
</svg>
