<svg width="26" height="20" viewBox="0 0 26 20" fill="none" xmlns="http://www.w3.org/2000/svg">
<path d="M0.078125 3.66667C0.078125 2.82681 0.418428 2.02136 1.02417 1.4275C1.62991 0.83363 2.45148 0.5 3.30813 0.5H22.6881C23.5448 0.5 24.3663 0.83363 24.9721 1.4275C25.5778 2.02136 25.9181 2.82681 25.9181 3.66667V5.25H0.078125V3.66667ZM0.078125 8.41667V16.3333C0.078125 17.1732 0.418428 17.9786 1.02417 18.5725C1.62991 19.1664 2.45148 19.5 3.30813 19.5H22.6881C23.5448 19.5 24.3663 19.1664 24.9721 18.5725C25.5778 17.9786 25.9181 17.1732 25.9181 16.3333V8.41667H0.078125ZM4.92312 11.5833H6.53813C6.96645 11.5833 7.37723 11.7501 7.6801 12.0471C7.98297 12.344 8.15312 12.7467 8.15312 13.1667V14.75C8.15312 15.1699 7.98297 15.5727 7.6801 15.8696C7.37723 16.1665 6.96645 16.3333 6.53813 16.3333H4.92312C4.4948 16.3333 4.08402 16.1665 3.78115 15.8696C3.47828 15.5727 3.30813 15.1699 3.30813 14.75V13.1667C3.30813 12.7467 3.47828 12.344 3.78115 12.0471C4.08402 11.7501 4.4948 11.5833 4.92312 11.5833Z" fill="white"/>
</svg>
